<svg viewBox="0 0 2100 401" xmlns="http://www.w3.org/2000/svg"><g fill="none" stroke-width="2"><g stroke="#918f90"><path d="m480.81 81.97c5.74 25.24 31.16 36.33 55.2 32.41 6.76-1.1 13.27-3.21 20.15-2.93q.51.02.75-.42 4.91-8.8 8.04-18.38.23-.69-.5-.66l-1.63.06q-.54.02-.8.49c-9.43 17.07-29.54 24.54-47.46 15.63-18.05-8.97-25.31-30.66-20.8-49.68 7.57-31.92 51.31-37.92 65.16-7.07a1.32 1.32 0 0 0 2.52-.63l-1.12-17.56a.97.97 0 0 0 -1.43-.8c-1.81.98-3.44 1.17-5.5.43q-7.83-2.81-14.63-4.02c-21.08-3.74-43.64 3.48-53.95 23.08-4.7 8.93-6.21 20.31-4 30.05"/><path d="m719.51 35.32q.14 31.07.01 62.13c-.03 6.66.49 11.83-6.99 12.77q-3.25.41-7.6.14-.63-.04-.68.59l-.11 1.4a.6.59-87.4 0 0 .59.65h40.76q.74 0 .74-.74v-1.3q0-.59-.59-.57c-8.95.36-14.87.57-14.92-10.37q-.15-32.33-.03-64.69 0-.51.51-.52 10.64-.11 21.31-.28c8.85-.15 9.71 8.18 11.01 14.39q.12.59.72.64l1.16.11q.63.06.57-.57l-1.96-20.12a1.44 1.44 0 0 0 -2.55-.77c-1.66 2.04-3.38 1.78-6.39 1.78q-31.04.03-62.07.09-2.71 0-4.16-1.84a1.42 1.42 0 0 0 -2.53.74l-1.99 20.08q-.05.54.49.52l1.44-.03a.64.63 2.6 0 0 .61-.55c.76-5.42 2.21-14.09 9.39-14.18q11.36-.15 22.72-.04.54 0 .54.54"/><path d="m874.58 87.57c7.21-16.69 4.05-35.15-9.4-47.3-24.56-22.17-70.56-13.92-80.53 19.44-5.38 17.99.37 36.96 16.72 47.2 24.68 15.45 60.93 9.11 73.21-19.34"/><path d="m1731.17 31.45c10.54-1.5 20.25 5.56 23.99 15.15a1.23 1.23 0 0 0 2.36-.61l-2.02-15.04a1.39 1.38-27.5 0 0 -2.39-.75c-1.32 1.44-2.97 1.34-4.85.7q-4.67-1.58-8.75-2.36c-12.69-2.42-29.63 2.69-30.59 18.23-1.15 18.49 27.94 27.24 38.95 39.59 6.57 7.36 4.52 18.21-4.54 22.7-13.91 6.89-28.71-1.42-32.33-15.95q-.11-.43-.54-.42l-1.48.02a.61.61 0 0 0 -.6.69l2.62 19.12q.07.51.59.52 2.01.04 3.46-1.4.36-.36.84-.23 5.44 1.38 10.87 2.69c28.34 6.81 49.97-23 22.11-42.46q-8.07-5.64-16.44-10.82c-5.21-3.23-10.91-7.67-12.79-13.47-2.79-8.57 3.47-14.75 11.53-15.9"/><path d="m1883.71 35.33q.14 30.55-.01 61.09c-.03 7.04.9 11.54-5.84 13.69q-1.88.6-9.09.21-.46-.02-.47.44l-.03 1.61a.61.61 0 0 0 .61.63h40.9q.52 0 .52-.53l-.01-1.48q0-.6-.6-.59c-6.79.15-14.7.78-14.75-8.16q-.2-33.43-.12-66.92 0-.53.52-.53 9.48-.12 18.96-.03c5.1.05 8.59-.18 10.65 4.48q1.9 4.27 2.59 9.7.08.61.71.62l1.43.02q.5.01.45-.5l-1.99-20.07a1.46 1.46 0 0 0 -2.6-.77q-1.54 1.93-4.04 1.92-31.27-.14-62.54-.17c-2.52-.01-4.29.21-6.04-1.8a1.4 1.4 0 0 0 -2.45.79l-2 19.97q-.06.54.48.58l1.4.09a.66.66 0 0 0 .7-.58q.52-4.74 2.36-9.09c1.67-3.97 3.66-5.1 7.84-5.15q10.96-.14 21.92-.01.54 0 .54.54"/><path d="m100.15 76.92c16.08 3.01 38.31-.34 42.28-18.92 4.33-20.25-13.45-29.06-30.43-29.21q-14.87-.14-36.09 1.27-.47.03-.46.5l.03 1.41q.02.57.59.55c4.72-.14 12.35-1.3 12.36 5.98q.06 32.5.18 65 .02 6.07-5.83 6.74-2.28.26-4.61.18-.6-.02-.61.58l-.03 1.51q0 .49.48.49h35.9a.65.64-.9 0 0 .65-.66l-.05-1.36q-.01-.63-.64-.6c-6.09.28-13.52.58-14.25-7.38q-.51-5.42.02-25.67.01-.51.51-.41"/><path d="m222.81 74.06c6.24-2.92 10.78-5.04 14.26-11.28 7.97-14.28-1.78-28.53-16.33-32.07q-7.54-1.83-12.75-1.93-15.19-.27-37.05 1.36-.56.04-.54.6l.05 1.27q.03.54.57.53 4.06-.12 6.01.25 6.1 1.17 6.22 6.96.35 16.54.01 59.77c-.07 9.09-3.29 11.34-12.2 10.87q-.56-.03-.59.52l-.1 1.51q-.03.58.55.58h36.7q.61 0 .62-.62v-1.41q.01-.62-.61-.59c-8.17.35-12.96-.43-13.11-9.91q-.18-10.93-.04-21.91.01-.43.43-.43l15.36-.06a.66.65-27 0 1 .38.12c9.3 6.75 16.54 15 24.58 22.72q7.47 7.16 11.99 9.5c8.18 4.23 17.28 4.38 26.35 4.03q.49-.02.49-.51l.01-1.36q0-.49-.49-.54c-10.38-1.04-19.82-6.73-26.81-14.3q-11.33-12.28-24.04-23.1-.4-.35.08-.57"/><path d="m1644.55 73.8c21.59-6.73 22.94-34.78.94-42.05q-7.94-2.61-13.49-2.83-16.35-.64-39.45 1.27-.55.04-.55.59v1.27q.01.63.63.56c7.43-.84 12.2 1.01 12.25 9.38q.15 27.44.01 54.87c-.06 9.68-.86 14.3-12.14 13.44q-.73-.06-.74.68l-.01 1.39a.62.62 0 0 0 .62.63h36.65q.51 0 .51-.52l-.03-1.68q-.01-.55-.55-.48c-6.85.8-12.96-.45-13.08-8.79q-.15-11.47-.05-23.06 0-.34.35-.34l15.59-.06a.52.51-25.5 0 1 .32.11c9.66 7.22 17.77 16.23 26.41 24.58 10.69 10.33 21.5 12.8 36.09 11.61a1.19 1.19 0 0 0 .04-2.36c-11.67-1.32-18.38-6.57-27.39-15.53q-11.32-11.25-23.08-22.05-.47-.44.15-.63"/><path d="m292.79 32.65c6.15.32 9.33 2.27 9.35 8.6q.13 28.25.04 56.5c-.02 6.37-.42 13.38-9.22 12.41q-.65-.07-.7.57l-.14 1.62q-.06.65.6.65h31.19a.64.64 0 0 0 .64-.66l-.05-1.58q-.02-.54-.55-.49c-11.59.93-10.64-6.69-10.68-15.77q-.09-26.5-.14-52.99-.01-7.51 7.09-8.6 1.87-.28 3.78-.41.49-.03.51-.52l.05-1.44q.02-.54-.52-.54h-31.3a.61.61 0 0 0 -.61.63l.03 1.36q.01.63.63.66"/><path d="m440.65 94.86-61.55-64.19q-.65-.67-1.59-.67h-19.58a.54.54 0 0 0 -.54.58l.11 1.39q.04.56.6.58 5.42.22 10.06 2.93.48.28.48.83.02 32.6-.01 65.19c-.01 7.26-4.36 9.01-10.7 8.87q-.66-.01-.67.64l-.03 1.35q-.01.64.63.64h29.75q.62 0 .62-.61v-1.44q0-.6-.6-.57c-5.47.28-12.7-.5-12.81-7.77q-.35-23.72.01-60.15.01-.61.43-.17 33.9 35.33 67.64 70.81 1.45 1.53 3.96.68.43-.15.43-.61-.05-36.83-.26-73.67c-.04-6.98 6.9-6.95 11.71-7q.56-.01.6-.57l.08-1.29q.04-.64-.6-.64h-30.1q-.52 0-.53.53l-.02 1.5q-.01.64.63.63c6.32-.09 12.26.64 12.32 7.57q.24 27.2.09 54.41-.01.8-.56.22"/><path d="m614.44 34.76q13.65-.08 27.32.11c7.76.1 9.11 7.39 10.06 13.23q.07.42.5.42h1.45q.55 0 .52-.54l-1.05-17.5q-.03-.48-.51-.48h-62.86a.64.63 0 0 0 -.64.63l-.02 1.38a.54.54 0 0 0 .58.54c9.43-.67 13.27 1.82 13.21 11.7q-.17 28.75-.13 57.5c.01 8.86-8.87 9.11-15.82 8.53q-.55-.05-.55.51l.01 1.72q0 .49.5.49h69.79q.55 0 .61-.55l1.98-18.24a1.3 1.29-33.8 0 0 -2.53-.5c-2.14 7.35-4.67 14.35-13.86 14.46q-11.5.13-22.99.07-5.85-.03-6.01-5.49-.21-6.88 0-29.76 0-.51.51-.52 11.01-.1 22.03.01c7.07.08 8.17 3.75 8.84 9.92q.06.59.65.59l1.49.01q.52.01.52-.52l.01-24.44q0-.51-.51-.5l-1.54.01a.65.64 1.4 0 0 -.64.6c-.22 3.37-1.73 9.27-5.4 9.32q-12.7.19-25.51.04-.51 0-.51-.52v-31.72a.51.5-90 0 1 .5-.51"/><path d="m916.73 42.36q33.99 35.22 67.64 70.77 1.42 1.51 3.87.64.43-.15.43-.6-.03-36.83-.06-73.67c0-7.03 6.6-6.95 11.63-7q.49 0 .53-.49l.11-1.35a.61.61 0 0 0 -.61-.66h-30.15q-.63 0-.59.63l.07 1.47a.59.59 0 0 0 .6.56c5.51-.1 12.37.64 12.4 6.84q.09 27.65.03 55.32a.24.24 0 0 1 -.41.16l-61.87-64.54a1.43 1.42-21.8 0 0 -1.03-.44h-19.83q-.51 0-.52.51l-.03 1.48q-.01.55.54.57 5.53.15 10.2 2.97.48.29.48.84.05 32.7.21 65.37.03 6.23-5.32 7.99-2.21.73-5.74.66-.58-.01-.58.56l-.01 1.53q-.01.52.51.52h29.74q.72 0 .66-.72l-.1-1.3q-.05-.64-.69-.62c-10.92.4-12.54-2.77-12.59-12.91q-.12-27.45.01-54.9 0-.67.47-.19"/><path d="m1150.16 32.67c12.71.05 12.3 6.85 12.33 17.06q.04 13 .01 26.02-.02 9.73-1.49 14.38-5.02 15.86-24.1 17.72c-17.4 1.7-34.33-5.62-35.01-25.36q-.43-12.5-.04-41.98c.1-6.91 5.26-7.98 11.03-7.98q.59 0 .6-.58l.03-1.44q0-.51-.51-.51h-33.15q-.64 0-.63.64l.01 1.37q.01.56.57.55c4.56-.11 10.66.68 10.8 6.69q.26 10.84.11 36.78-.06 10.41 1.32 15.34c5.92 21.23 30.03 26.91 49.22 22.61q27.45-6.16 27.43-35.24-.02-15.77.05-31.58c.03-8.65 1.44-14.94 11.48-14.44a.51.51 0 0 0 .54-.48l.11-1.59a.6.6 0 0 0 -.6-.65h-30.18a.64.64 0 0 0 -.64.66l.05 1.38q.03.63.66.63"/><path d="m1223 42.17q34.03 35.39 67.83 71 1.35 1.42 3.89.64.42-.13.42-.58.02-35.04 0-70.09 0-5.37.25-6.27c1.21-4.35 7.45-4.36 11.29-4.33a.57.57 0 0 0 .57-.56l.01-1.47q.01-.51-.5-.51h-30.13q-.63 0-.63.62v1.37q0 .56.55.57c5.31.1 12.08.16 12.2 7q.5 27.55.27 55.18-.01.63-.45.18l-61.82-64.48q-.43-.44-1.03-.44h-19.85q-.63 0-.6.63l.07 1.33q.03.57.6.59 5.43.2 10.09 2.93.47.28.47.83.03 31.95 0 63.91c-.01 8.9-3.11 9.4-10.9 10.31q-.46.05-.49.52l-.09 1.31q-.04.64.59.64h29.93q.53 0 .53-.54l.01-1.51a.65.64-1.3 0 0 -.68-.64c-11.57.59-12.81-3.33-12.86-13.57q-.12-27.19.01-54.39 0-.64.45-.18"/><path d="m1336.1 32.74c6.95-.63 9.37 3.53 9.38 9.76q.05 29.37-.03 58.75-.02 9.48-9.37 8.98-.59-.03-.59.56l-.01 1.7q0 .51.51.51h31.39q.63 0 .6-.63l-.07-1.57q-.03-.57-.6-.52c-11.54.96-10.74-6.8-10.77-15.83q-.09-25.72.02-51.45.05-11.27 10.62-10.38a.68.68 0 0 0 .74-.65l.06-1.34q.02-.63-.61-.63h-31.4a.59.59 0 0 0 -.59.65l.15 1.62q.05.51.57.47"/><path d="m1438.24 100.81q-11.33-27.75-22.39-55.71c-2.03-5.12-4.57-9.26 2.09-11.47q2.64-.88 8.53-1.02.61-.02.65-.62l.08-1.37q.04-.62-.58-.62h-35.71q-.59 0-.54.59l.11 1.44q.04.57.61.53 7.98-.47 11.09 7.25 15.06 37.37 30.01 74.8.21.53.79.54l5.56.01q.57 0 .78-.53 14.07-36.63 28.34-73.16 3.28-8.4 12.14-9.03.47-.04.48-.51l.03-1.39q.01-.54-.53-.54h-29.91q-.63 0-.58.63l.12 1.39q.05.55.61.54c8.68-.22 14.18 1.42 10.26 11.69q-10.81 28.33-21.61 56.56a.23.23 0 0 1 -.43 0"/><path d="m1522.6 72.5q11.4-.19 22.81.02c6.62.13 7.56 4.57 8.18 10.07q.04.4.45.4l1.56.02a.61.61 0 0 0 .61-.61l.01-24.14q0-.7-.71-.71l-1.47-.01q-.47-.01-.5.46c-.3 4.6-1.73 9.74-7.31 9.68q-11.72-.12-23.63-.15-.56 0-.56-.56l.01-31.69q0-.54.54-.54 14.08-.05 28.16.22c6.52.13 8.56 7.38 8.97 13q.04.55.58.55l1.67.01q.48 0 .45-.49l-1.03-17.48q-.04-.55-.59-.55h-62.93q-.64 0-.6.63l.08 1.32q.04.56.6.56c9.44-.13 12.88 1.01 12.93 11.13q.14 26.54.04 53.08c-.01 4.47.51 11.16-4.56 12.7q-4.86 1.48-11.11.9-.51-.05-.51.46l-.03 1.69q-.01.53.52.53h69.77q.49 0 .55-.5l2.03-18.8q.08-.71-.63-.67l-1.44.08a.64.63-84.6 0 0 -.59.49c-1.73 7.4-4.82 14.38-13.4 14.51q-11.62.17-23.29.05c-6.73-.07-6.08-4.92-6.14-10.62q-.12-12.24-.02-24.5 0-.53.53-.54"/><path d="m1790.3 32.58c5.33.32 9.58 2.12 9.56 8.18q-.07 28.86-.13 57.74c-.01 6.64-.82 12.47-9.37 11.73q-.6-.05-.61.56v1.58q0 .63.62.63h31.37q.49 0 .49-.49v-1.53a.69.68-2.7 0 0 -.75-.68q-10.6.96-10.64-10.04-.1-28.63.01-57.26.05-11.27 10.66-10.4.7.06.71-.64l.02-1.34q.01-.62-.62-.62h-31.37q-.51 0-.51.5l.01 1.5q0 .55.55.58"/><path d="m1996.1 73.66a.28.28 0 0 1 -.48.01q-10.95-16.87-21.73-33.62c-4.55-7.06 2.38-7.63 7.11-7.48q.57.02.61-.55l.1-1.26q.06-.76-.7-.76h-34.26a.6.6 0 0 0 -.6.63l.06 1.44q.03.63.66.6c8.5-.33 12.65 4.69 16.8 11.15q12.07 18.83 24.15 37.69a2.37 2.37 0 0 1 .36 1.22q.09 9.27-.08 18.51c-.15 8.3-5.2 9.5-12.48 9.11q-.66-.03-.66.62v1.51q-.01.52.52.52h35.64q.63 0 .59-.62l-.09-1.5q-.04-.68-.71-.61c-5.99.59-11.41-1.21-11.56-7.65q-.23-10.09-.04-20.21.03-2.01 1.07-3.77 10.86-18.38 21.76-36.74 5.14-8.68 15.27-9.24a.68.68 0 0 0 .65-.67l.02-1.45q0-.54-.54-.54h-29.11q-.58 0-.58.58v1.4q0 .57.57.56c3.9-.07 11.05 1.09 7.56 7.2q-9.8 17.11-19.88 33.92"/></g><path d="m167.89 284.46q10.46 27.97 20.65 56.04c2.18 6 1.88 12.86-5.55 14.57q-8.39 1.93-21.94.93-.56-.04-.56.52v4.59a.63.62 90 0 0 .62.63l76.26.01q.62 0 .62-.62l.01-4.36a.63.63 0 0 0 -.64-.63c-14.15.34-20.13-4.56-25.06-17.68q-29.23-77.81-58.54-155.62a.81.8-9.7 0 0 -.76-.53l-23.26-.01q-.78 0-.49.73l1.99 5.03q.23.56.02 1.12-26.02 71.15-52.03 142.3-2.34 6.38-6.06 13.72c-4.9 9.66-12.68 10.94-22.65 11.04q-.51 0-.52.52l-.01 4.36a.63.63 0 0 0 .63.63l63.64-.01q.75 0 .75-.75l-.01-4.23q0-.56-.56-.55c-8.74.16-31.41 1.13-25.74-14.67q10.25-28.54 20.81-57.03.19-.51.74-.51l56.97-.01q.5 0 .67.47" stroke="#fabf92"/><path d="m539.78 197.37q.43 68.81.24 137.63-.01 5.05-1.16 9.96c-3.18 13.56-20.92 11.36-31.02 11.27q-.56 0-.56.56l-.02 4.21q0 .74.74.74h87.33a.61.6.5 0 0 .61-.59l.08-4.39q.01-.68-.67-.64-10.39.5-17.64-.36c-13.21-1.57-14.29-10.92-14.32-22.88q-.19-67.69-.03-135.48 0-.54.54-.55 24.17-.19 48.36-.01c7.96.07 11.95 3.45 15.06 10.82q3.98 9.42 5.08 19.77.06.56.63.56l4.28.02q.6 0 .54-.6l-4.39-44.45q-.07-.69-.75-.68l-3.92.03q-.58 0-.86.5-2.14 3.7-6.18 3.72-31.81.15-140-.01-4.33 0-6.56-3.8-.26-.44-.77-.44l-4.02.03q-.55 0-.61.55l-4.41 44.56q-.06.59.53.59l4.11-.02q.56 0 .65-.55c1.19-7.64 3.33-19.18 8.19-25.33 4.26-5.39 9.42-5.28 16.89-5.3q21.73-.06 43.48.01.55 0 .55.55" stroke="#fabf92"/><path d="m1286.68 190.24q8.26-2.03 16.35-.49c17.63 3.36 31.02 15.32 37.94 32.2q.22.54.8.54l3.67-.02q.66-.01.58-.66l-4.61-34.64q-.09-.66-.75-.65l-3.66.05q-.52.01-.81.45c-2.8 4.22-10.05 1.76-14.06.28-19.18-7.07-43.24-7.51-60.85 4-21.4 14-23.51 40.56-7.18 59.36 9.47 10.89 21.33 18.87 34.06 26.63q14.78 9.01 28.45 19.59c7.55 5.85 14.84 14.37 16.47 23.76 4.32 24.82-19.14 38.63-40.42 37.72-22.65-.97-40-17.19-45.11-39.03q-.12-.51-.65-.52l-4.34-.04q-.69-.01-.6.67l5.75 41.83q.07.48.55.48h3.76a1.34 1.32-69.9 0 0 1.02-.48c2.39-2.9 5.07-2.98 8.74-1.96q8 2.22 19 4.82c19.85 4.69 43.05 1.4 58.51-12.32 19.65-17.45 20.67-45.58 2.78-64.62-19.14-20.38-46.01-29.98-66.39-48.86-17.98-16.67-14.04-41.97 11-48.09" stroke="#fabf92"/><path d="m371.18 279.52c22.36-6.43 38.3-25.32 36.44-49.23-1.64-21.23-16.81-35.08-36.39-41q-12.94-3.91-22.48-4.59c-27.3-1.95-56.14.64-86.86 1.9q-.38.02-.39.4l-.09 4.52a.55.54-.5 0 0 .57.55q8.36-.4 14.69.78c13.39 2.48 12.04 17.4 12.05 27.54q.04 56.68.04 113.36c0 19.5-8.8 23.47-26.67 22.42a.58.57 1.4 0 0 -.61.57l-.02 4.49q0 .52.52.52l78.75-.01q.48 0 .48-.47l.02-4.53a.69.68-2.7 0 0 -.75-.68c-14.35 1.39-28.09-.46-28.17-18.56q-.12-24.6-.06-49.26.01-.51.52-.48 16.1 1.09 32.2-.13a1.35 1.35 0 0 1 .87.25c18.44 13.29 33.28 29.46 48.82 45.2q10.28 10.41 19.41 17.35c18.54 14.09 42.23 15.77 65.36 14.29q.67-.04.67-.71l.01-3.95q.01-.53-.51-.56c-22.16-1.6-40.21-13.22-55.16-28.44-17.15-17.45-34.42-35.67-53.4-50.84q-.6-.49.14-.7" stroke="#fabf92"/><path d="m1173.48 198.26c5.31 5.63 5.72 16.09 5.74 23.49q.06 36.38-.11 72.74-.06 12.27-4.86 24c-7.75 18.94-24.47 29.27-44.34 31.84-44.39 5.73-78.78-11.86-78.88-60.83q-.08-37-.16-74c-.04-18.59 5.76-23.63 24.2-23.53q.69 0 .69-.69l.02-4.1a.61.6 90 0 0 -.6-.61l-71.18-.01q-.57 0-.58.57l-.05 4.34q-.01.53.52.54c12.74.23 23.28.99 23.41 16.98q.31 38.88.27 77.75-.01 14.09.81 19.97c5.72 40.72 39.16 58.22 77.12 59.44 40.9 1.31 77.88-15.87 85.57-58.98q1.27-7.11 1.22-19.92-.15-33.87-.26-67.75c-.06-17.67 6.28-27.55 25.1-27.34a.73.73 0 0 0 .74-.75l-.06-4.23q-.01-.61-.63-.61l-65.06-.01q-.58 0-.58.57l.01 4.57q0 .49.49.48c6.87-.1 16.65 1 21.44 6.08" stroke="#fabf92"/><path d="m1446.16 196.81q29.29-.06 58.6.01c7.65.02 12.13 2.96 15.55 9.94q4.22 8.61 5.07 18.4.05.58.63.59l4.15.05q.71.01.67-.71l-2.18-38a.56.55-1.6 0 0 -.56-.52l-134.11-.01q-.46 0-.47.46l-.09 4.5a.54.53 89.1 0 0 .57.56c15.61-.86 28.19.8 28.19 19.92q.01 61.5-.05 123c-.01 7.18-1.08 14.8-8.21 18.45-6.53 3.34-17.66 2.93-25.5 2.73q-.58-.01-.59.57l-.05 4.38q-.01.61.6.61h148.42q.54 0 .6-.54l4.39-40.94q.06-.59-.53-.6l-4.25-.02q-.55-.01-.67.53c-3.31 14.68-10.05 30.78-27.85 31.14q-21.17.43-49.83.27-12.69-.07-12.9-12.33-.29-16.91-.01-62.53 0-.5.5-.5 22.28-.09 44.56 0c3.74.02 8.46-.15 11.39 1.08 7.34 3.08 9.4 13.01 9.71 20.54a.62.62 0 0 0 .61.6l4.46.03q.71.01.71-.7l.01-52.39q0-.58-.57-.58l-4.43-.01q-.61-.01-.65.6c-.53 7.88-2.46 17.84-10.95 20.02q-1.6.41-11.28.48-21.72.17-43.57-.05a.6.59-89.5 0 1 -.58-.6l.02-67.96q0-.47.47-.47" stroke="#fabf92"/><path d="m1596.73 306.19c5.02 38.34 35.6 57.35 71.78 59.69 42.74 2.77 84.11-13.49 91.24-60.44q.98-6.5.96-19.96-.06-34.11.01-68.23c.04-18.06 7.57-24.37 25.03-25.24q.51-.02.51-.53l-.01-4.32q-.01-.59-.59-.59l-65.05-.01q-.59 0-.59.58v4.36q0 .54.54.56 5.16.21 12.17 1.51c12.75 2.36 14.67 13.85 14.73 24.68q.16 31 .08 62c-.04 16.49.02 28.09-5.73 40.56-10.87 23.54-36.22 31.27-60.6 30.62-32.59-.85-57.33-16.41-61.24-50.45q-.46-3.97-.48-19.99-.03-35.24.12-70.49c.06-15.96 10.25-18.98 24.02-18.43q.62.03.62-.59v-4.32q0-.59-.59-.59l-71.31-.01q-.59 0-.59.59l-.01 4.34q0 .52.52.52c13.53.18 23.62 1.37 23.71 18.23q.08 15.95.02 75.98-.01 14.29.73 19.97" stroke="#fabf92"/><path d="m927.17 212.02q3.86 58.55 7.6 117.28.74 11.63.27 13.9c-2.17 10.62-14.62 13.16-24.18 13q-.6-.01-.6.59l.01 4.34q0 .61.61.61l71.37.01q.49 0 .49-.5l.01-4.48a.61.6-.5 0 0 -.63-.61c-8.29.33-19.62 1.22-21.91-9.15q-1.09-4.93-1.26-7.26-2.16-28.59-9.68-137.5c-.71-10.24 11.1-9.69 17.94-10.15a.6.6 0 0 0 .56-.6l-.01-3.98q0-.73-.74-.73h-40.25q-.41 0-.58.37l-67.01 140.78a.32.31 44.8 0 1 -.57 0l-67.29-140.78q-.18-.37-.59-.37h-41.61q-.58 0-.58.59l-.01 4.1q0 .5.49.56 2.58.34 5.32.7 12.29 1.65 11.56 14.52-3.55 62.01-7.39 124-.45 7.24-2.31 14.23c-2.69 10.08-12.44 10.91-21.38 10.72q-.57-.01-.57.56l-.03 4.33a.64.64 0 0 0 .64.64l57.4.01a.6.6 0 0 0 .6-.6l-.01-4.4a.61.61 0 0 0 -.6-.61c-7.96-.21-17.85-1.94-20.92-10.12q-1.21-3.24-.71-11.65 3.62-60.9 7.31-122.24a.31.31 0 0 1 .59-.12l71.41 149.35q.18.38.61.38l5.65.01q.5 0 .71-.45l69.75-149.38a.27.27 0 0 1 .52.1" stroke="#fabf92"/><path d="m1926.62 327.77q-.37.78-.74 0l-67.18-140.53a.79.78-12.4 0 0 -.71-.45l-41.47.01q-.59 0-.59.58l-.02 4.12q0 .55.54.58c12.03.83 17.51 4.06 16.76 17.17q-1.7 29.52-7.48 122.84-.56 9.17-2.42 14.47c-3.24 9.28-13.49 9.98-21.23 9.66q-.53-.02-.53.51l-.01 4.54q0 .47.48.47l57.6.01q.62 0 .62-.62l.01-4.34q0-.61-.6-.62c-7.94-.23-17.71-1.85-20.87-10.15q-1.33-3.47-.75-13.15 3.63-60.5 7.26-120.85a.28.28 0 0 1 .53-.1l71.4 149.33q.24.49.79.49l5.48.01q.55 0 .78-.49l69.62-149.1a.35.35 0 0 1 .66.12q4.02 61.57 7.97 123.34c.41 6.51-.28 12.66-5.56 16.13q-7.49 4.93-18.61 4.28-.69-.04-.7.65l-.02 4.51q0 .56.56.56l71.31-.01a.49.49 0 0 0 .49-.49l.02-4.48q0-.53-.53-.52-3.19.05-10.97-.39c-12.12-.69-12.01-12.91-12.67-22.11q-4.68-65.87-9.24-131.75c-.67-9.72 10.67-9.49 17.97-9.83a.67.67 0 0 0 .64-.67v-4q0-.7-.71-.7l-40.25-.01q-.54 0-.77.48z" stroke="#fabf92"/><path d="m832.45 31.66c-35.16-3.82-44.91 37.77-30.76 61.68 10.96 18.52 37.65 25.62 53.09 9.88 10.58-10.78 13.11-28.31 9.29-42.7-4.14-15.62-15.24-27.08-31.62-28.86" stroke="#918f90"/><path d="m119.53 33.17q-9.21-3.09-19.58-1.2-.46.08-.46.55v41.2q0 .45.43.56c12.1 3.33 25.29-1.81 29.3-14.03 3.12-9.51 1.17-23.42-9.69-27.08" stroke="#918f90"/><path d="m194.45 31.95v43.12a.46.46 0 0 0 .46.46h11.32a20.96 19.64 0 0 0 20.96-19.64v-4.76a20.96 19.64 0 0 0 -20.96-19.64h-11.32a.46.46 0 0 0 -.46.46" stroke="#918f90"/><path d="m1615.95 32.43v42.04a1.09 1.09 0 0 0 1.09 1.09h10.38a21.33 19.5 0 0 0 21.33-19.5v-5.22a21.33 19.5 0 0 0 -21.33-19.5h-10.38a1.09 1.09 0 0 0 -1.09 1.09" stroke="#918f90"/><path d="m114.68 271.19a.33.33 0 0 0 .31.45l47.45-.25a.33.33 0 0 0 .31-.45l-24.06-63.82a.33.33 0 0 0 -.62 0z" stroke="#fabf92"/><path d="m371.78 267.23c9.58-11.96 11.04-29.18 8.22-44.11-6.14-32.56-40.84-35.66-67.32-33.09q-.44.04-.44.49v91.24a.62.62 0 0 0 .58.62c19.32 1.42 45.59 1.52 58.96-15.15" stroke="#fabf92"/></g><path d="m0 0h2100v401h-2100zm480.81 81.97c5.74 25.24 31.16 36.33 55.2 32.41 6.76-1.1 13.27-3.21 20.15-2.93q.51.02.75-.42 4.91-8.8 8.04-18.38.23-.69-.5-.66l-1.63.06q-.54.02-.8.49c-9.43 17.07-29.54 24.54-47.46 15.63-18.05-8.97-25.31-30.66-20.8-49.68 7.57-31.92 51.31-37.92 65.16-7.07a1.32 1.32 0 0 0 2.52-.63l-1.12-17.56a.97.97 0 0 0 -1.43-.8c-1.81.98-3.44 1.17-5.5.43q-7.83-2.81-14.63-4.02c-21.08-3.74-43.64 3.48-53.95 23.08-4.7 8.93-6.21 20.31-4 30.05zm238.7-46.65q.14 31.07.01 62.13c-.03 6.66.49 11.83-6.99 12.77q-3.25.41-7.6.14-.63-.04-.68.59l-.11 1.4a.6.59-87.4 0 0 .59.65h40.76q.74 0 .74-.74v-1.3q0-.59-.59-.57c-8.95.36-14.87.57-14.92-10.37q-.15-32.33-.03-64.69 0-.51.51-.52 10.64-.11 21.31-.28c8.85-.15 9.71 8.18 11.01 14.39q.12.59.72.64l1.16.11q.63.06.57-.57l-1.96-20.12a1.44 1.44 0 0 0 -2.55-.77c-1.66 2.04-3.38 1.78-6.39 1.78q-31.04.03-62.07.09-2.71 0-4.16-1.84a1.42 1.42 0 0 0 -2.53.74l-1.99 20.08q-.05.54.49.52l1.44-.03a.64.63 2.6 0 0 .61-.55c.76-5.42 2.21-14.09 9.39-14.18q11.36-.15 22.72-.04.54 0 .54.54zm155.07 52.25c7.21-16.69 4.05-35.15-9.4-47.3-24.56-22.17-70.56-13.92-80.53 19.44-5.38 17.99.37 36.96 16.72 47.2 24.68 15.45 60.93 9.11 73.21-19.34zm856.59-56.12c10.54-1.5 20.25 5.56 23.99 15.15a1.23 1.23 0 0 0 2.36-.61l-2.02-15.04a1.39 1.38-27.5 0 0 -2.39-.75c-1.32 1.44-2.97 1.34-4.85.7q-4.67-1.58-8.75-2.36c-12.69-2.42-29.63 2.69-30.59 18.23-1.15 18.49 27.94 27.24 38.95 39.59 6.57 7.36 4.52 18.21-4.54 22.7-13.91 6.89-28.71-1.42-32.33-15.95q-.11-.43-.54-.42l-1.48.02a.61.61 0 0 0 -.6.69l2.62 19.12q.07.51.59.52 2.01.04 3.46-1.4.36-.36.84-.23 5.44 1.38 10.87 2.69c28.34 6.81 49.97-23 22.11-42.46q-8.07-5.64-16.44-10.82c-5.21-3.23-10.91-7.67-12.79-13.47-2.79-8.57 3.47-14.75 11.53-15.9zm152.54 3.88q.14 30.55-.01 61.09c-.03 7.04.9 11.54-5.84 13.69q-1.88.6-9.09.21-.46-.02-.47.44l-.03 1.61a.61.61 0 0 0 .61.63h40.9q.52 0 .52-.53l-.01-1.48q0-.6-.6-.59c-6.79.15-14.7.78-14.75-8.16q-.2-33.43-.12-66.92 0-.53.52-.53 9.48-.12 18.96-.03c5.1.05 8.59-.18 10.65 4.48q1.9 4.27 2.59 9.7.08.61.71.62l1.43.02q.5.01.45-.5l-1.99-20.07a1.46 1.46 0 0 0 -2.6-.77q-1.54 1.93-4.04 1.92-31.27-.14-62.54-.17c-2.52-.01-4.29.21-6.04-1.8a1.4 1.4 0 0 0 -2.45.79l-2 19.97q-.06.54.48.58l1.4.09a.66.66 0 0 0 .7-.58q.52-4.74 2.36-9.09c1.67-3.97 3.66-5.1 7.84-5.15q10.96-.14 21.92-.01.54 0 .54.54zm-1783.56 41.59c16.08 3.01 38.31-.34 42.28-18.92 4.33-20.25-13.45-29.06-30.43-29.21q-14.87-.14-36.09 1.27-.47.03-.46.5l.03 1.41q.02.57.59.55c4.72-.14 12.35-1.3 12.36 5.98q.06 32.5.18 65 .02 6.07-5.83 6.74-2.28.26-4.61.18-.6-.02-.61.58l-.03 1.51q0 .49.48.49h35.9a.65.64-.9 0 0 .65-.66l-.05-1.36q-.01-.63-.64-.6c-6.09.28-13.52.58-14.25-7.38q-.51-5.42.02-25.67.01-.51.51-.41zm122.66-2.86c6.24-2.92 10.78-5.04 14.26-11.28 7.97-14.28-1.78-28.53-16.33-32.07q-7.54-1.83-12.75-1.93-15.19-.27-37.05 1.36-.56.04-.54.6l.05 1.27q.03.54.57.53 4.06-.12 6.01.25 6.1 1.17 6.22 6.96.35 16.54.01 59.77c-.07 9.09-3.29 11.34-12.2 10.87q-.56-.03-.59.52l-.1 1.51q-.03.58.55.58h36.7q.61 0 .62-.62v-1.41q.01-.62-.61-.59c-8.17.35-12.96-.43-13.11-9.91q-.18-10.93-.04-21.91.01-.43.43-.43l15.36-.06a.66.65-27 0 1 .38.12c9.3 6.75 16.54 15 24.58 22.72q7.47 7.16 11.99 9.5c8.18 4.23 17.28 4.38 26.35 4.03q.49-.02.49-.51l.01-1.36q0-.49-.49-.54c-10.38-1.04-19.82-6.73-26.81-14.3q-11.33-12.28-24.04-23.1-.4-.35.08-.57zm1421.74-.26c21.59-6.73 22.94-34.78.94-42.05q-7.94-2.61-13.49-2.83-16.35-.64-39.45 1.27-.55.04-.55.59v1.27q.01.63.63.56c7.43-.84 12.2 1.01 12.25 9.38q.15 27.44.01 54.87c-.06 9.68-.86 14.3-12.14 13.44q-.73-.06-.74.68l-.01 1.39a.62.62 0 0 0 .62.63h36.65q.51 0 .51-.52l-.03-1.68q-.01-.55-.55-.48c-6.85.8-12.96-.45-13.08-8.79q-.15-11.47-.05-23.06 0-.34.35-.34l15.59-.06a.52.51-25.5 0 1 .32.11c9.66 7.22 17.77 16.23 26.41 24.58 10.69 10.33 21.5 12.8 36.09 11.61a1.19 1.19 0 0 0 .04-2.36c-11.67-1.32-18.38-6.57-27.39-15.53q-11.32-11.25-23.08-22.05-.47-.44.15-.63zm-1351.76-41.15c6.15.32 9.33 2.27 9.35 8.6q.13 28.25.04 56.5c-.02 6.37-.42 13.38-9.22 12.41q-.65-.07-.7.57l-.14 1.62q-.06.65.6.65h31.19a.64.64 0 0 0 .64-.66l-.05-1.58q-.02-.54-.55-.49c-11.59.93-10.64-6.69-10.68-15.77q-.09-26.5-.14-52.99-.01-7.51 7.09-8.6 1.87-.28 3.78-.41.49-.03.51-.52l.05-1.44q.02-.54-.52-.54h-31.3a.61.61 0 0 0 -.61.63l.03 1.36q.01.63.63.66zm147.86 62.21-61.55-64.19q-.65-.67-1.59-.67h-19.58a.54.54 0 0 0 -.54.58l.11 1.39q.04.56.6.58 5.42.22 10.06 2.93.48.28.48.83.02 32.6-.01 65.19c-.01 7.26-4.36 9.01-10.7 8.87q-.66-.01-.67.64l-.03 1.35q-.01.64.63.64h29.75q.62 0 .62-.61v-1.44q0-.6-.6-.57c-5.47.28-12.7-.5-12.81-7.77q-.35-23.72.01-60.15.01-.61.43-.17 33.9 35.33 67.64 70.81 1.45 1.53 3.96.68.43-.15.43-.61-.05-36.83-.26-73.67c-.04-6.98 6.9-6.95 11.71-7q.56-.01.6-.57l.08-1.29q.04-.64-.6-.64h-30.1q-.52 0-.53.53l-.02 1.5q-.01.64.63.63c6.32-.09 12.26.64 12.32 7.57q.24 27.2.09 54.41-.01.8-.56.22zm173.79-60.1q13.65-.08 27.32.11c7.76.1 9.11 7.39 10.06 13.23q.07.42.5.42h1.45q.55 0 .52-.54l-1.05-17.5q-.03-.48-.51-.48h-62.86a.64.63 0 0 0 -.64.63l-.02 1.38a.54.54 0 0 0 .58.54c9.43-.67 13.27 1.82 13.21 11.7q-.17 28.75-.13 57.5c.01 8.86-8.87 9.11-15.82 8.53q-.55-.05-.55.51l.01 1.72q0 .49.5.49h69.79q.55 0 .61-.55l1.98-18.24a1.3 1.29-33.8 0 0 -2.53-.5c-2.14 7.35-4.67 14.35-13.86 14.46q-11.5.13-22.99.07-5.85-.03-6.01-5.49-.21-6.88 0-29.76 0-.51.51-.52 11.01-.1 22.03.01c7.07.08 8.17 3.75 8.84 9.92q.06.59.65.59l1.49.01q.52.01.52-.52l.01-24.44q0-.51-.51-.5l-1.54.01a.65.64 1.4 0 0 -.64.6c-.22 3.37-1.73 9.27-5.4 9.32q-12.7.19-25.51.04-.51 0-.51-.52v-31.72a.51.5-90 0 1 .5-.51zm302.29 7.6q33.99 35.22 67.64 70.77 1.42 1.51 3.87.64.43-.15.43-.6-.03-36.83-.06-73.67c0-7.03 6.6-6.95 11.63-7q.49 0 .53-.49l.11-1.35a.61.61 0 0 0 -.61-.66h-30.15q-.63 0-.59.63l.07 1.47a.59.59 0 0 0 .6.56c5.51-.1 12.37.64 12.4 6.84q.09 27.65.03 55.32a.24.24 0 0 1 -.41.16l-61.87-64.54a1.43 1.42-21.8 0 0 -1.03-.44h-19.83q-.51 0-.52.51l-.03 1.48q-.01.55.54.57 5.53.15 10.2 2.97.48.29.48.84.05 32.7.21 65.37.03 6.23-5.32 7.99-2.21.73-5.74.66-.58-.01-.58.56l-.01 1.53q-.01.52.51.52h29.74q.72 0 .66-.72l-.1-1.3q-.05-.64-.69-.62c-10.92.4-12.54-2.77-12.59-12.91q-.12-27.45.01-54.9 0-.67.47-.19zm233.43-9.69c12.71.05 12.3 6.85 12.33 17.06q.04 13 .01 26.02-.02 9.73-1.49 14.38-5.02 15.86-24.1 17.72c-17.4 1.7-34.33-5.62-35.01-25.36q-.43-12.5-.04-41.98c.1-6.91 5.26-7.98 11.03-7.98q.59 0 .6-.58l.03-1.44q0-.51-.51-.51h-33.15q-.64 0-.63.64l.01 1.37q.01.56.57.55c4.56-.11 10.66.68 10.8 6.69q.26 10.84.11 36.78-.06 10.41 1.32 15.34c5.92 21.23 30.03 26.91 49.22 22.61q27.45-6.16 27.43-35.24-.02-15.77.05-31.58c.03-8.65 1.44-14.94 11.48-14.44a.51.51 0 0 0 .54-.48l.11-1.59a.6.6 0 0 0 -.6-.65h-30.18a.64.64 0 0 0 -.64.66l.05 1.38q.03.63.66.63zm72.84 9.5q34.03 35.39 67.83 71 1.35 1.42 3.89.64.42-.13.42-.58.02-35.04 0-70.09 0-5.37.25-6.27c1.21-4.35 7.45-4.36 11.29-4.33a.57.57 0 0 0 .57-.56l.01-1.47q.01-.51-.5-.51h-30.13q-.63 0-.63.62v1.37q0 .56.55.57c5.31.1 12.08.16 12.2 7q.5 27.55.27 55.18-.01.63-.45.18l-61.82-64.48q-.43-.44-1.03-.44h-19.85q-.63 0-.6.63l.07 1.33q.03.57.6.59 5.43.2 10.09 2.93.47.28.47.83.03 31.95 0 63.91c-.01 8.9-3.11 9.4-10.9 10.31q-.46.05-.49.52l-.09 1.31q-.04.64.59.64h29.93q.53 0 .53-.54l.01-1.51a.65.64-1.3 0 0 -.68-.64c-11.57.59-12.81-3.33-12.86-13.57q-.12-27.19.01-54.39 0-.64.45-.18zm113.1-9.43c6.95-.63 9.37 3.53 9.38 9.76q.05 29.37-.03 58.75-.02 9.48-9.37 8.98-.59-.03-.59.56l-.01 1.7q0 .51.51.51h31.39q.63 0 .6-.63l-.07-1.57q-.03-.57-.6-.52c-11.54.96-10.74-6.8-10.77-15.83q-.09-25.72.02-51.45.05-11.27 10.62-10.38a.68.68 0 0 0 .74-.65l.06-1.34q.02-.63-.61-.63h-31.4a.59.59 0 0 0 -.59.65l.15 1.62q.05.51.57.47zm102.14 68.07q-11.33-27.75-22.39-55.71c-2.03-5.12-4.57-9.26 2.09-11.47q2.64-.88 8.53-1.02.61-.02.65-.62l.08-1.37q.04-.62-.58-.62h-35.71q-.59 0-.54.59l.11 1.44q.04.57.61.53 7.98-.47 11.09 7.25 15.06 37.37 30.01 74.8.21.53.79.54l5.56.01q.57 0 .78-.53 14.07-36.63 28.34-73.16 3.28-8.4 12.14-9.03.47-.04.48-.51l.03-1.39q.01-.54-.53-.54h-29.91q-.63 0-.58.63l.12 1.39q.05.55.61.54c8.68-.22 14.18 1.42 10.26 11.69q-10.81 28.33-21.61 56.56a.23.23 0 0 1 -.43 0zm84.36-28.31q11.4-.19 22.81.02c6.62.13 7.56 4.57 8.18 10.07q.04.4.45.4l1.56.02a.61.61 0 0 0 .61-.61l.01-24.14q0-.7-.71-.71l-1.47-.01q-.47-.01-.5.46c-.3 4.6-1.73 9.74-7.31 9.68q-11.72-.12-23.63-.15-.56 0-.56-.56l.01-31.69q0-.54.54-.54 14.08-.05 28.16.22c6.52.13 8.56 7.38 8.97 13q.04.55.58.55l1.67.01q.48 0 .45-.49l-1.03-17.48q-.04-.55-.59-.55h-62.93q-.64 0-.6.63l.08 1.32q.04.56.6.56c9.44-.13 12.88 1.01 12.93 11.13q.14 26.54.04 53.08c-.01 4.47.51 11.16-4.56 12.7q-4.86 1.48-11.11.9-.51-.05-.51.46l-.03 1.69q-.01.53.52.53h69.77q.49 0 .55-.5l2.03-18.8q.08-.71-.63-.67l-1.44.08a.64.63-84.6 0 0 -.59.49c-1.73 7.4-4.82 14.38-13.4 14.51q-11.62.17-23.29.05c-6.73-.07-6.08-4.92-6.14-10.62q-.12-12.24-.02-24.5 0-.53.53-.54zm267.7-39.92c5.33.32 9.58 2.12 9.56 8.18q-.07 28.86-.13 57.74c-.01 6.64-.82 12.47-9.37 11.73q-.6-.05-.61.56v1.58q0 .63.62.63h31.37q.49 0 .49-.49v-1.53a.69.68-2.7 0 0 -.75-.68q-10.6.96-10.64-10.04-.1-28.63.01-57.26.05-11.27 10.66-10.4.7.06.71-.64l.02-1.34q.01-.62-.62-.62h-31.37q-.51 0-.51.5l.01 1.5q0 .55.55.58zm205.8 41.08a.28.28 0 0 1 -.48.01q-10.95-16.87-21.73-33.62c-4.55-7.06 2.38-7.63 7.11-7.48q.57.02.61-.55l.1-1.26q.06-.76-.7-.76h-34.26a.6.6 0 0 0 -.6.63l.06 1.44q.03.63.66.6c8.5-.33 12.65 4.69 16.8 11.15q12.07 18.83 24.15 37.69a2.37 2.37 0 0 1 .36 1.22q.09 9.27-.08 18.51c-.15 8.3-5.2 9.5-12.48 9.11q-.66-.03-.66.62v1.51q-.01.52.52.52h35.64q.63 0 .59-.62l-.09-1.5q-.04-.68-.71-.61c-5.99.59-11.41-1.21-11.56-7.65q-.23-10.09-.04-20.21.03-2.01 1.07-3.77 10.86-18.38 21.76-36.74 5.14-8.68 15.27-9.24a.68.68 0 0 0 .65-.67l.02-1.45q0-.54-.54-.54h-29.11q-.58 0-.58.58v1.4q0 .57.57.56c3.9-.07 11.05 1.09 7.56 7.2q-9.8 17.11-19.88 33.92zm-1828.21 210.8q10.46 27.97 20.65 56.04c2.18 6 1.88 12.86-5.55 14.57q-8.39 1.93-21.94.93-.56-.04-.56.52v4.59a.63.62 90 0 0 .62.63l76.26.01q.62 0 .62-.62l.01-4.36a.63.63 0 0 0 -.64-.63c-14.15.34-20.13-4.56-25.06-17.68q-29.23-77.81-58.54-155.62a.81.8-9.7 0 0 -.76-.53l-23.26-.01q-.78 0-.49.73l1.99 5.03q.23.56.02 1.12-26.02 71.15-52.03 142.3-2.34 6.38-6.06 13.72c-4.9 9.66-12.68 10.94-22.65 11.04q-.51 0-.52.52l-.01 4.36a.63.63 0 0 0 .63.63l63.64-.01q.75 0 .75-.75l-.01-4.23q0-.56-.56-.55c-8.74.16-31.41 1.13-25.74-14.67q10.25-28.54 20.81-57.03.19-.51.74-.51l56.97-.01q.5 0 .67.47zm371.89-87.09q.43 68.81.24 137.63-.01 5.05-1.16 9.96c-3.18 13.56-20.92 11.36-31.02 11.27q-.56 0-.56.56l-.02 4.21q0 .74.74.74h87.33a.61.6.5 0 0 .61-.59l.08-4.39q.01-.68-.67-.64-10.39.5-17.64-.36c-13.21-1.57-14.29-10.92-14.32-22.88q-.19-67.69-.03-135.48 0-.54.54-.55 24.17-.19 48.36-.01c7.96.07 11.95 3.45 15.06 10.82q3.98 9.42 5.08 19.77.06.56.63.56l4.28.02q.6 0 .54-.6l-4.39-44.45q-.07-.69-.75-.68l-3.92.03q-.58 0-.86.5-2.14 3.7-6.18 3.72-31.81.15-140-.01-4.33 0-6.56-3.8-.26-.44-.77-.44l-4.02.03q-.55 0-.61.55l-4.41 44.56q-.06.59.53.59l4.11-.02q.56 0 .65-.55c1.19-7.64 3.33-19.18 8.19-25.33 4.26-5.39 9.42-5.28 16.89-5.3q21.73-.06 43.48.01.55 0 .55.55zm746.9-7.13q8.26-2.03 16.35-.49c17.63 3.36 31.02 15.32 37.94 32.2q.22.54.8.54l3.67-.02q.66-.01.58-.66l-4.61-34.64q-.09-.66-.75-.65l-3.66.05q-.52.01-.81.45c-2.8 4.22-10.05 1.76-14.06.28-19.18-7.07-43.24-7.51-60.85 4-21.4 14-23.51 40.56-7.18 59.36 9.47 10.89 21.33 18.87 34.06 26.63q14.78 9.01 28.45 19.59c7.55 5.85 14.84 14.37 16.47 23.76 4.32 24.82-19.14 38.63-40.42 37.72-22.65-.97-40-17.19-45.11-39.03q-.12-.51-.65-.52l-4.34-.04q-.69-.01-.6.67l5.75 41.83q.07.48.55.48h3.76a1.34 1.32-69.9 0 0 1.02-.48c2.39-2.9 5.07-2.98 8.74-1.96q8 2.22 19 4.82c19.85 4.69 43.05 1.4 58.51-12.32 19.65-17.45 20.67-45.58 2.78-64.62-19.14-20.38-46.01-29.98-66.39-48.86-17.98-16.67-14.04-41.97 11-48.09zm-915.5 89.28c22.36-6.43 38.3-25.32 36.44-49.23-1.64-21.23-16.81-35.08-36.39-41q-12.94-3.91-22.48-4.59c-27.3-1.95-56.14.64-86.86 1.9q-.38.02-.39.4l-.09 4.52a.55.54-.5 0 0 .57.55q8.36-.4 14.69.78c13.39 2.48 12.04 17.4 12.05 27.54q.04 56.68.04 113.36c0 19.5-8.8 23.47-26.67 22.42a.58.57 1.4 0 0 -.61.57l-.02 4.49q0 .52.52.52l78.75-.01q.48 0 .48-.47l.02-4.53a.69.68-2.7 0 0 -.75-.68c-14.35 1.39-28.09-.46-28.17-18.56q-.12-24.6-.06-49.26.01-.51.52-.48 16.1 1.09 32.2-.13a1.35 1.35 0 0 1 .87.25c18.44 13.29 33.28 29.46 48.82 45.2q10.28 10.41 19.41 17.35c18.54 14.09 42.23 15.77 65.36 14.29q.67-.04.67-.71l.01-3.95q.01-.53-.51-.56c-22.16-1.6-40.21-13.22-55.16-28.44-17.15-17.45-34.42-35.67-53.4-50.84q-.6-.49.14-.7zm802.3-81.26c5.31 5.63 5.72 16.09 5.74 23.49q.06 36.38-.11 72.74-.06 12.27-4.86 24c-7.75 18.94-24.47 29.27-44.34 31.84-44.39 5.73-78.78-11.86-78.88-60.83q-.08-37-.16-74c-.04-18.59 5.76-23.63 24.2-23.53q.69 0 .69-.69l.02-4.1a.61.6 90 0 0 -.6-.61l-71.18-.01q-.57 0-.58.57l-.05 4.34q-.01.53.52.54c12.74.23 23.28.99 23.41 16.98q.31 38.88.27 77.75-.01 14.09.81 19.97c5.72 40.72 39.16 58.22 77.12 59.44 40.9 1.31 77.88-15.87 85.57-58.98q1.27-7.11 1.22-19.92-.15-33.87-.26-67.75c-.06-17.67 6.28-27.55 25.1-27.34a.73.73 0 0 0 .74-.75l-.06-4.23q-.01-.61-.63-.61l-65.06-.01q-.58 0-.58.57l.01 4.57q0 .49.49.48c6.87-.1 16.65 1 21.44 6.08zm272.68-1.45q29.29-.06 58.6.01c7.65.02 12.13 2.96 15.55 9.94q4.22 8.61 5.07 18.4.05.58.63.59l4.15.05q.71.01.67-.71l-2.18-38a.56.55-1.6 0 0 -.56-.52l-134.11-.01q-.46 0-.47.46l-.09 4.5a.54.53 89.1 0 0 .57.56c15.61-.86 28.19.8 28.19 19.92q.01 61.5-.05 123c-.01 7.18-1.08 14.8-8.21 18.45-6.53 3.34-17.66 2.93-25.5 2.73q-.58-.01-.59.57l-.05 4.38q-.01.61.6.61h148.42q.54 0 .6-.54l4.39-40.94q.06-.59-.53-.6l-4.25-.02q-.55-.01-.67.53c-3.31 14.68-10.05 30.78-27.85 31.14q-21.17.43-49.83.27-12.69-.07-12.9-12.33-.29-16.91-.01-62.53 0-.5.5-.5 22.28-.09 44.56 0c3.74.02 8.46-.15 11.39 1.08 7.34 3.08 9.4 13.01 9.71 20.54a.62.62 0 0 0 .61.6l4.46.03q.71.01.71-.7l.01-52.39q0-.58-.57-.58l-4.43-.01q-.61-.01-.65.6c-.53 7.88-2.46 17.84-10.95 20.02q-1.6.41-11.28.48-21.72.17-43.57-.05a.6.59-89.5 0 1 -.58-.6l.02-67.96q0-.47.47-.47zm150.57 109.38c5.02 38.34 35.6 57.35 71.78 59.69 42.74 2.77 84.11-13.49 91.24-60.44q.98-6.5.96-19.96-.06-34.11.01-68.23c.04-18.06 7.57-24.37 25.03-25.24q.51-.02.51-.53l-.01-4.32q-.01-.59-.59-.59l-65.05-.01q-.59 0-.59.58v4.36q0 .54.54.56 5.16.21 12.17 1.51c12.75 2.36 14.67 13.85 14.73 24.68q.16 31 .08 62c-.04 16.49.02 28.09-5.73 40.56-10.87 23.54-36.22 31.27-60.6 30.62-32.59-.85-57.33-16.41-61.24-50.45q-.46-3.97-.48-19.99-.03-35.24.12-70.49c.06-15.96 10.25-18.98 24.02-18.43q.62.03.62-.59v-4.32q0-.59-.59-.59l-71.31-.01q-.59 0-.59.59l-.01 4.34q0 .52.52.52c13.53.18 23.62 1.37 23.71 18.23q.08 15.95.02 75.98-.01 14.29.73 19.97zm-669.56-94.17q3.86 58.55 7.6 117.28.74 11.63.27 13.9c-2.17 10.62-14.62 13.16-24.18 13q-.6-.01-.6.59l.01 4.34q0 .61.61.61l71.37.01q.49 0 .49-.5l.01-4.48a.61.6-.5 0 0 -.63-.61c-8.29.33-19.62 1.22-21.91-9.15q-1.09-4.93-1.26-7.26-2.16-28.59-9.68-137.5c-.71-10.24 11.1-9.69 17.94-10.15a.6.6 0 0 0 .56-.6l-.01-3.98q0-.73-.74-.73h-40.25q-.41 0-.58.37l-67.01 140.78a.32.31 44.8 0 1 -.57 0l-67.29-140.78q-.18-.37-.59-.37h-41.61q-.58 0-.58.59l-.01 4.1q0 .5.49.56 2.58.34 5.32.7 12.29 1.65 11.56 14.52-3.55 62.01-7.39 124-.45 7.24-2.31 14.23c-2.69 10.08-12.44 10.91-21.38 10.72q-.57-.01-.57.56l-.03 4.33a.64.64 0 0 0 .64.64l57.4.01a.6.6 0 0 0 .6-.6l-.01-4.4a.61.61 0 0 0 -.6-.61c-7.96-.21-17.85-1.94-20.92-10.12q-1.21-3.24-.71-11.65 3.62-60.9 7.31-122.24a.31.31 0 0 1 .59-.12l71.41 149.35q.18.38.61.38l5.65.01q.5 0 .71-.45l69.75-149.38a.27.27 0 0 1 .52.1zm999.45 115.75q-.37.78-.74 0l-67.18-140.53a.79.78-12.4 0 0 -.71-.45l-41.47.01q-.59 0-.59.58l-.02 4.12q0 .55.54.58c12.03.83 17.51 4.06 16.76 17.17q-1.7 29.52-7.48 122.84-.56 9.17-2.42 14.47c-3.24 9.28-13.49 9.98-21.23 9.66q-.53-.02-.53.51l-.01 4.54q0 .47.48.47l57.6.01q.62 0 .62-.62l.01-4.34q0-.61-.6-.62c-7.94-.23-17.71-1.85-20.87-10.15q-1.33-3.47-.75-13.15 3.63-60.5 7.26-120.85a.28.28 0 0 1 .53-.1l71.4 149.33q.24.49.79.49l5.48.01q.55 0 .78-.49l69.62-149.1a.35.35 0 0 1 .66.12q4.02 61.57 7.97 123.34c.41 6.51-.28 12.66-5.56 16.13q-7.49 4.93-18.61 4.28-.69-.04-.7.65l-.02 4.51q0 .56.56.56l71.31-.01a.49.49 0 0 0 .49-.49l.02-4.48q0-.53-.53-.52-3.19.05-10.97-.39c-12.12-.69-12.01-12.91-12.67-22.11q-4.68-65.87-9.24-131.75c-.67-9.72 10.67-9.49 17.97-9.83a.67.67 0 0 0 .64-.67v-4q0-.7-.71-.7l-40.25-.01q-.54 0-.77.48z" fill="#fff"/><g fill="#231f20"><path d="m536.01 114.38c-24.04 3.92-49.46-7.17-55.2-32.41-2.21-9.74-.7-21.12 4-30.05 10.31-19.6 32.87-26.82 53.95-23.08q6.8 1.21 14.63 4.02c2.06.74 3.69.55 5.5-.43a.97.97 0 0 1 1.43.8l1.12 17.56a1.32 1.32 0 0 1 -2.52.63c-13.85-30.85-57.59-24.85-65.16 7.07-4.51 19.02 2.75 40.71 20.8 49.68 17.92 8.91 38.03 1.44 47.46-15.63q.26-.47.8-.49l1.63-.06q.73-.03.5.66-3.13 9.58-8.04 18.38-.24.44-.75.42c-6.88-.28-13.39 1.83-20.15 2.93z"/><path d="m718.97 34.78q-11.36-.11-22.72.04c-7.18.09-8.63 8.76-9.39 14.18a.64.63 2.6 0 1 -.61.55l-1.44.03q-.54.02-.49-.52l1.99-20.08a1.42 1.42 0 0 1 2.53-.74q1.45 1.84 4.16 1.84 31.03-.06 62.07-.09c3.01 0 4.73.26 6.39-1.78a1.44 1.44 0 0 1 2.55.77l1.96 20.12q.06.63-.57.57l-1.16-.11q-.6-.05-.72-.64c-1.3-6.21-2.16-14.54-11.01-14.39q-10.67.17-21.31.28-.51.01-.51.52-.12 32.36.03 64.69c.05 10.94 5.97 10.73 14.92 10.37q.59-.02.59.57v1.3q0 .74-.74.74h-40.76a.6.59-87.4 0 1 -.59-.65l.11-1.4q.05-.63.68-.59 4.35.27 7.6-.14c7.48-.94 6.96-6.11 6.99-12.77q.13-31.06-.01-62.13 0-.54-.54-.54z"/><path d="m874.58 87.57c-12.28 28.45-48.53 34.79-73.21 19.34-16.35-10.24-22.1-29.21-16.72-47.2 9.97-33.36 55.97-41.61 80.53-19.44 13.45 12.15 16.61 30.61 9.4 47.3zm-42.13-55.91c-35.16-3.82-44.91 37.77-30.76 61.68 10.96 18.52 37.65 25.62 53.09 9.88 10.58-10.78 13.11-28.31 9.29-42.7-4.14-15.62-15.24-27.08-31.62-28.86z"/><path d="m1731.17 31.45c-8.06 1.15-14.32 7.33-11.53 15.9 1.88 5.8 7.58 10.24 12.79 13.47q8.37 5.18 16.44 10.82c27.86 19.46 6.23 49.27-22.11 42.46q-5.43-1.31-10.87-2.69-.48-.13-.84.23-1.45 1.44-3.46 1.4-.52-.01-.59-.52l-2.62-19.12a.61.61 0 0 1 .6-.69l1.48-.02q.43-.01.54.42c3.62 14.53 18.42 22.84 32.33 15.95 9.06-4.49 11.11-15.34 4.54-22.7-11.01-12.35-40.1-21.1-38.95-39.59.96-15.54 17.9-20.65 30.59-18.23q4.08.78 8.75 2.36c1.88.64 3.53.74 4.85-.7a1.39 1.38-27.5 0 1 2.39.75l2.02 15.04a1.23 1.23 0 0 1 -2.36.61c-3.74-9.59-13.45-16.65-23.99-15.15z"/><path d="m1883.17 34.79q-10.96-.13-21.92.01c-4.18.05-6.17 1.18-7.84 5.15q-1.84 4.35-2.36 9.09a.66.66 0 0 1 -.7.58l-1.4-.09q-.54-.04-.48-.58l2-19.97a1.4 1.4 0 0 1 2.45-.79c1.75 2.01 3.52 1.79 6.04 1.8q31.27.03 62.54.17 2.5.01 4.04-1.92a1.46 1.46 0 0 1 2.6.77l1.99 20.07q.05.51-.45.5l-1.43-.02q-.63-.01-.71-.62-.69-5.43-2.59-9.7c-2.06-4.66-5.55-4.43-10.65-4.48q-9.48-.09-18.96.03-.52 0-.52.53-.08 33.49.12 66.92c.05 8.94 7.96 8.31 14.75 8.16q.6-.01.6.59l.01 1.48q0 .53-.52.53h-40.9a.61.61 0 0 1 -.61-.63l.03-1.61q.01-.46.47-.44 7.21.39 9.09-.21c6.74-2.15 5.81-6.65 5.84-13.69q.15-30.54.01-61.09 0-.54-.54-.54z"/><path d="m99.64 77.33q-.53 20.25-.02 25.67c.73 7.96 8.16 7.66 14.25 7.38q.63-.03.64.6l.05 1.36a.65.64-.9 0 1 -.65.66h-35.9q-.48 0-.48-.49l.03-1.51q.01-.6.61-.58 2.33.08 4.61-.18 5.85-.67 5.83-6.74-.12-32.5-.18-65c-.01-7.28-7.64-6.12-12.36-5.98q-.57.02-.59-.55l-.03-1.41q-.01-.47.46-.5 21.22-1.41 36.09-1.27c16.98.15 34.76 8.96 30.43 29.21-3.97 18.58-26.2 21.93-42.28 18.92q-.5-.1-.51.41zm19.89-44.16q-9.21-3.09-19.58-1.2-.46.08-.46.55v41.2q0 .45.43.56c12.1 3.33 25.29-1.81 29.3-14.03 3.12-9.51 1.17-23.42-9.69-27.08z"/><path d="m222.73 74.63q12.71 10.82 24.04 23.1c6.99 7.57 16.43 13.26 26.81 14.3q.49.05.49.54l-.01 1.36q0 .49-.49.51c-9.07.35-18.17.2-26.35-4.03q-4.52-2.34-11.99-9.5c-8.04-7.72-15.28-15.97-24.58-22.72a.66.65-27 0 0 -.38-.12l-15.36.06q-.42 0-.43.43-.14 10.98.04 21.91c.15 9.48 4.94 10.26 13.11 9.91q.62-.03.61.59v1.41q-.01.62-.62.62h-36.7q-.58 0-.55-.58l.1-1.51q.03-.55.59-.52c8.91.47 12.13-1.78 12.2-10.87q.34-43.23-.01-59.77-.12-5.79-6.22-6.96-1.95-.37-6.01-.25-.54.01-.57-.53l-.05-1.27q-.02-.56.54-.6 21.86-1.63 37.05-1.36 5.21.1 12.75 1.93c14.55 3.54 24.3 17.79 16.33 32.07-3.48 6.24-8.02 8.36-14.26 11.28q-.48.22-.08.57zm-28.28-42.68v43.12a.46.46 0 0 0 .46.46h11.32a20.96 19.64 0 0 0 20.96-19.64v-4.76a20.96 19.64 0 0 0 -20.96-19.64h-11.32a.46.46 0 0 0 -.46.46z"/><path d="m1644.4 74.43q11.76 10.8 23.08 22.05c9.01 8.96 15.72 14.21 27.39 15.53a1.19 1.19 0 0 1 -.04 2.36c-14.59 1.19-25.4-1.28-36.09-11.61-8.64-8.35-16.75-17.36-26.41-24.58a.52.51-25.5 0 0 -.32-.11l-15.59.06q-.35 0-.35.34-.1 11.59.05 23.06c.12 8.34 6.23 9.59 13.08 8.79q.54-.07.55.48l.03 1.68q0 .52-.51.52h-36.65a.62.62 0 0 1 -.62-.63l.01-1.39q.01-.74.74-.68c11.28.86 12.08-3.76 12.14-13.44q.14-27.43-.01-54.87c-.05-8.37-4.82-10.22-12.25-9.38q-.62.07-.63-.56v-1.27q0-.55.55-.59 23.1-1.91 39.45-1.27 5.55.22 13.49 2.83c22 7.27 20.65 35.32-.94 42.05q-.62.19-.15.63zm-28.45-42v42.04a1.09 1.09 0 0 0 1.09 1.09h10.38a21.33 19.5 0 0 0 21.33-19.5v-5.22a21.33 19.5 0 0 0 -21.33-19.5h-10.38a1.09 1.09 0 0 0 -1.09 1.09z"/><path d="m302.14 41.25c-.02-6.33-3.2-8.28-9.35-8.6q-.62-.03-.63-.66l-.03-1.36a.61.61 0 0 1 .61-.63h31.3q.54 0 .52.54l-.05 1.44q-.02.49-.51.52-1.91.13-3.78.41-7.1 1.09-7.09 8.6.05 26.49.14 52.99c.04 9.08-.91 16.7 10.68 15.77q.53-.05.55.49l.05 1.58a.64.64 0 0 1 -.64.66h-31.19q-.66 0-.6-.65l.14-1.62q.05-.64.7-.57c8.8.97 9.2-6.04 9.22-12.41q.09-28.25-.04-56.5z"/><path d="m441.21 94.64q.15-27.21-.09-54.41c-.06-6.93-6-7.66-12.32-7.57q-.64.01-.63-.63l.02-1.5q.01-.53.53-.53h30.1q.64 0 .6.64l-.08 1.29q-.04.56-.6.57c-4.81.05-11.75.02-11.71 7q.21 36.84.26 73.67 0 .46-.43.61-2.51.85-3.96-.68-33.74-35.48-67.64-70.81-.42-.44-.43.17-.36 36.43-.01 60.15c.11 7.27 7.34 8.05 12.81 7.77q.6-.03.6.57v1.44q0 .61-.62.61h-29.75q-.64 0-.63-.64l.03-1.35q.01-.65.67-.64c6.34.14 10.69-1.61 10.7-8.87q.03-32.59.01-65.19 0-.55-.48-.83-4.64-2.71-10.06-2.93-.56-.02-.6-.58l-.11-1.39a.54.54 0 0 1 .54-.58h19.58q.94 0 1.59.67l61.55 64.19q.55.58.56-.22z"/><path d="m613.94 35.27v31.72q0 .52.51.52 12.81.15 25.51-.04c3.67-.05 5.18-5.95 5.4-9.32a.65.64 1.4 0 1 .64-.6l1.54-.01q.51-.01.51.5l-.01 24.44q0 .53-.52.52l-1.49-.01q-.59 0-.65-.59c-.67-6.17-1.77-9.84-8.84-9.92q-11.02-.11-22.03-.01-.51.01-.51.52-.21 22.88 0 29.76.16 5.46 6.01 5.49 11.49.06 22.99-.07c9.19-.11 11.72-7.11 13.86-14.46a1.3 1.29-33.8 0 1 2.53.5l-1.98 18.24q-.06.55-.61.55h-69.79q-.5 0-.5-.49l-.01-1.72q0-.56.55-.51c6.95.58 15.83.33 15.82-8.53q-.04-28.75.13-57.5c.06-9.88-3.78-12.37-13.21-11.7a.54.54 0 0 1 -.58-.54l.02-1.38a.64.63 0 0 1 .64-.63h62.86q.48 0 .51.48l1.05 17.5q.03.54-.52.54h-1.45q-.43 0-.5-.42c-.95-5.84-2.3-13.13-10.06-13.23q-13.67-.19-27.32-.11a.51.5 90 0 0 -.5.51z"/><path d="m916.26 42.55q-.13 27.45-.01 54.9c.05 10.14 1.67 13.31 12.59 12.91q.64-.02.69.62l.1 1.3q.06.72-.66.72h-29.74q-.52 0-.51-.52l.01-1.53q0-.57.58-.56 3.53.07 5.74-.66 5.35-1.76 5.32-7.99-.16-32.67-.21-65.37 0-.55-.48-.84-4.67-2.82-10.2-2.97-.55-.02-.54-.57l.03-1.48q.01-.51.52-.51h19.83a1.43 1.42-21.8 0 1 1.03.44l61.87 64.54a.24.24 0 0 0 .41-.16q.06-27.67-.03-55.32c-.03-6.2-6.89-6.94-12.4-6.84a.59.59 0 0 1 -.6-.56l-.07-1.47q-.04-.63.59-.63h30.15a.61.61 0 0 1 .61.66l-.11 1.35q-.04.49-.53.49c-5.03.05-11.63-.03-11.63 7q.03 36.84.06 73.67 0 .45-.43.6-2.45.87-3.87-.64-33.65-35.55-67.64-70.77-.47-.48-.47.19z"/><path d="m1162.49 49.73c-.03-10.21.38-17.01-12.33-17.06q-.63 0-.66-.63l-.05-1.38a.64.64 0 0 1 .64-.66h30.18a.6.6 0 0 1 .6.65l-.11 1.59a.51.51 0 0 1 -.54.48c-10.04-.5-11.45 5.79-11.48 14.44q-.07 15.81-.05 31.58.02 29.08-27.43 35.24c-19.19 4.3-43.3-1.38-49.22-22.61q-1.38-4.93-1.32-15.34.15-25.94-.11-36.78c-.14-6.01-6.24-6.8-10.8-6.69q-.56.01-.57-.55l-.01-1.37q-.01-.64.63-.64h33.15q.51 0 .51.51l-.03 1.44q-.01.58-.6.58c-5.77 0-10.93 1.07-11.03 7.98q-.39 29.48.04 41.98c.68 19.74 17.61 27.06 35.01 25.36q19.08-1.86 24.1-17.72 1.47-4.65 1.49-14.38.03-13.02-.01-26.02z"/><path d="m1222.55 42.35q-.13 27.2-.01 54.39c.05 10.24 1.29 14.16 12.86 13.57a.65.64-1.3 0 1 .68.64l-.01 1.51q0 .54-.53.54h-29.93q-.63 0-.59-.64l.09-1.31q.03-.47.49-.52c7.79-.91 10.89-1.41 10.9-10.31q.03-31.96 0-63.91 0-.55-.47-.83-4.66-2.73-10.09-2.93-.57-.02-.6-.59l-.07-1.33q-.03-.63.6-.63h19.85q.6 0 1.03.44l61.82 64.48q.44.45.45-.18.23-27.63-.27-55.18c-.12-6.84-6.89-6.9-12.2-7q-.55-.01-.55-.57v-1.37q0-.62.63-.62h30.13q.51 0 .5.51l-.01 1.47a.57.57 0 0 1 -.57.56c-3.84-.03-10.08-.02-11.29 4.33q-.25.9-.25 6.27.02 35.05 0 70.09 0 .45-.42.58-2.54.78-3.89-.64-33.8-35.61-67.83-71-.45-.46-.45.18z"/><path d="m1345.48 42.5c-.01-6.23-2.43-10.39-9.38-9.76q-.52.04-.57-.47l-.15-1.62a.59.59 0 0 1 .59-.65h31.4q.63 0 .61.63l-.06 1.34a.68.68 0 0 1 -.74.65q-10.57-.89-10.62 10.38-.11 25.73-.02 51.45c.03 9.03-.77 16.79 10.77 15.83q.57-.05.6.52l.07 1.57q.03.63-.6.63h-31.39q-.51 0-.51-.51l.01-1.7q0-.59.59-.56 9.35.5 9.37-8.98.08-29.38.03-58.75z"/><path d="m1438.24 100.81a.23.23 0 0 0 .43 0q10.8-28.23 21.61-56.56c3.92-10.27-1.58-11.91-10.26-11.69q-.56.01-.61-.54l-.12-1.39q-.05-.63.58-.63h29.91q.54 0 .53.54l-.03 1.39q-.01.47-.48.51-8.86.63-12.14 9.03-14.27 36.53-28.34 73.16-.21.53-.78.53l-5.56-.01q-.58-.01-.79-.54-14.95-37.43-30.01-74.8-3.11-7.72-11.09-7.25-.57.04-.61-.53l-.11-1.44q-.05-.59.54-.59h35.71q.62 0 .58.62l-.08 1.37q-.04.6-.65.62-5.89.14-8.53 1.02c-6.66 2.21-4.12 6.35-2.09 11.47q11.06 27.96 22.39 55.71z"/><path d="m1522.07 73.04q-.1 12.26.02 24.5c.06 5.7-.59 10.55 6.14 10.62q11.67.12 23.29-.05c8.58-.13 11.67-7.11 13.4-14.51a.64.63-84.6 0 1 .59-.49l1.44-.08q.71-.04.63.67l-2.03 18.8q-.06.5-.55.5h-69.77q-.53 0-.52-.53l.03-1.69q0-.51.51-.46 6.25.58 11.11-.9c5.07-1.54 4.55-8.23 4.56-12.7q.1-26.54-.04-53.08c-.05-10.12-3.49-11.26-12.93-11.13q-.56 0-.6-.56l-.08-1.32q-.04-.63.6-.63h62.93q.55 0 .59.55l1.03 17.48q.03.49-.45.49l-1.67-.01q-.54 0-.58-.55c-.41-5.62-2.45-12.87-8.97-13q-14.08-.27-28.16-.22-.54 0-.54.54l-.01 31.69q0 .56.56.56 11.91.03 23.63.15c5.58.06 7.01-5.08 7.31-9.68q.03-.47.5-.46l1.47.01q.71.01.71.71l-.01 24.14a.61.61 0 0 1 -.61.61l-1.56-.02q-.41 0-.45-.4c-.62-5.5-1.56-9.94-8.18-10.07q-11.41-.21-22.81-.02-.53.01-.53.54z"/><path d="m1799.86 40.76c.02-6.06-4.23-7.86-9.56-8.18q-.55-.03-.55-.58l-.01-1.5q0-.5.51-.5h31.37q.63 0 .62.62l-.02 1.34q-.01.7-.71.64-10.61-.87-10.66 10.4-.11 28.63-.01 57.26.04 11 10.64 10.04a.69.68-2.7 0 1 .75.68v1.53q0 .49-.49.49h-31.37q-.62 0-.62-.63v-1.58q.01-.61.61-.56c8.55.74 9.36-5.09 9.37-11.73q.06-28.88.13-57.74z"/><path d="m1996.1 73.66q10.08-16.81 19.88-33.92c3.49-6.11-3.66-7.27-7.56-7.2q-.57.01-.57-.56v-1.4q0-.58.58-.58h29.11q.54 0 .54.54l-.02 1.45a.68.68 0 0 1 -.65.67q-10.13.56-15.27 9.24-10.9 18.36-21.76 36.74-1.04 1.76-1.07 3.77-.19 10.12.04 20.21c.15 6.44 5.57 8.24 11.56 7.65q.67-.07.71.61l.09 1.5q.04.62-.59.62h-35.64q-.53 0-.52-.52v-1.51q0-.65.66-.62c7.28.39 12.33-.81 12.48-9.11q.17-9.24.08-18.51a2.37 2.37 0 0 0 -.36-1.22q-12.08-18.86-24.15-37.69c-4.15-6.46-8.3-11.48-16.8-11.15q-.63.03-.66-.6l-.06-1.44a.6.6 0 0 1 .6-.63h34.26q.76 0 .7.76l-.1 1.26q-.04.57-.61.55c-4.73-.15-11.66.42-7.11 7.48q10.78 16.75 21.73 33.62a.28.28 0 0 0 .48-.01z"/></g><path d="m119.53 33.17c10.86 3.66 12.81 17.57 9.69 27.08-4.01 12.22-17.2 17.36-29.3 14.03q-.43-.11-.43-.56v-41.2q0-.47.46-.55 10.37-1.89 19.58 1.2z" fill="#fff"/><path d="m194.45 31.95a.46.46 0 0 1 .46-.46h11.32a20.96 19.64 0 0 1 20.96 19.64v4.76a20.96 19.64 0 0 1 -20.96 19.64h-11.32a.46.46 0 0 1 -.46-.46z" fill="#fff"/><path d="m1615.95 32.43a1.09 1.09 0 0 1 1.09-1.09h10.38a21.33 19.5 0 0 1 21.33 19.5v5.22a21.33 19.5 0 0 1 -21.33 19.5h-10.38a1.09 1.09 0 0 1 -1.09-1.09z" fill="#fff"/><path d="m801.69 93.34c-14.15-23.91-4.4-65.5 30.76-61.68 16.38 1.78 27.48 13.24 31.62 28.86 3.82 14.39 1.29 31.92-9.29 42.7-15.44 15.74-42.13 8.64-53.09-9.88z" fill="#fff"/><path d="m167.22 283.99-56.97.01q-.55 0-.74.51-10.56 28.49-20.81 57.03c-5.67 15.8 17 14.83 25.74 14.67q.56-.01.56.55l.01 4.23q0 .75-.75.75l-63.64.01a.63.63 0 0 1 -.63-.63l.01-4.36q.01-.52.52-.52c9.97-.1 17.75-1.38 22.65-11.04q3.72-7.34 6.06-13.72 26.01-71.15 52.03-142.3.21-.56-.02-1.12l-1.99-5.03q-.29-.73.49-.73l23.26.01a.81.8-9.7 0 1 .76.53q29.31 77.81 58.54 155.62c4.93 13.12 10.91 18.02 25.06 17.68a.63.63 0 0 1 .64.63l-.01 4.36q0 .62-.62.62l-76.26-.01a.63.62-90 0 1 -.62-.63v-4.59q0-.56.56-.52 13.55 1 21.94-.93c7.43-1.71 7.73-8.57 5.55-14.57q-10.19-28.07-20.65-56.04-.17-.47-.67-.47zm-52.54-12.8a.33.33 0 0 0 .31.45l47.45-.25a.33.33 0 0 0 .31-.45l-24.06-63.82a.33.33 0 0 0 -.62 0z" fill="#f57f25"/><path d="m539.23 196.82q-21.75-.07-43.48-.01c-7.47.02-12.63-.09-16.89 5.3-4.86 6.15-7 17.69-8.19 25.33q-.09.55-.65.55l-4.11.02q-.59 0-.53-.59l4.41-44.56q.06-.55.61-.55l4.02-.03q.51 0 .77.44 2.23 3.8 6.56 3.8 108.19.16 140 .01 4.04-.02 6.18-3.72.28-.5.86-.5l3.92-.03q.68-.01.75.68l4.39 44.45q.06.6-.54.6l-4.28-.02q-.57 0-.63-.56-1.1-10.35-5.08-19.77c-3.11-7.37-7.1-10.75-15.06-10.82q-24.19-.18-48.36.01-.54.01-.54.55-.16 67.79.03 135.48c.03 11.96 1.11 21.31 14.32 22.88q7.25.86 17.64.36.68-.04.67.64l-.08 4.39a.61.6.5 0 1 -.61.59h-87.33q-.74 0-.74-.74l.02-4.21q0-.56.56-.56c10.1.09 27.84 2.29 31.02-11.27q1.15-4.91 1.16-9.96.19-68.82-.24-137.63 0-.55-.55-.55z" fill="#f57f25"/><path d="m1286.68 190.24c-25.04 6.12-28.98 31.42-11 48.09 20.38 18.88 47.25 28.48 66.39 48.86 17.89 19.04 16.87 47.17-2.78 64.62-15.46 13.72-38.66 17.01-58.51 12.32q-11-2.6-19-4.82c-3.67-1.02-6.35-.94-8.74 1.96a1.34 1.32-69.9 0 1 -1.02.48h-3.76q-.48 0-.55-.48l-5.75-41.83q-.09-.68.6-.67l4.34.04q.53.01.65.52c5.11 21.84 22.46 38.06 45.11 39.03 21.28.91 44.74-12.9 40.42-37.72-1.63-9.39-8.92-17.91-16.47-23.76q-13.67-10.58-28.45-19.59c-12.73-7.76-24.59-15.74-34.06-26.63-16.33-18.8-14.22-45.36 7.18-59.36 17.61-11.51 41.67-11.07 60.85-4 4.01 1.48 11.26 3.94 14.06-.28q.29-.44.81-.45l3.66-.05q.66-.01.75.65l4.61 34.64q.08.65-.58.66l-3.67.02q-.58 0-.8-.54c-6.92-16.88-20.31-28.84-37.94-32.2q-8.09-1.54-16.35.49z" fill="#f57f25"/><path d="m371.18 279.52q-.74.21-.14.7c18.98 15.17 36.25 33.39 53.4 50.84 14.95 15.22 33 26.84 55.16 28.44q.52.03.51.56l-.01 3.95q0 .67-.67.71c-23.13 1.48-46.82-.2-65.36-14.29q-9.13-6.94-19.41-17.35c-15.54-15.74-30.38-31.91-48.82-45.2a1.35 1.35 0 0 0 -.87-.25q-16.1 1.22-32.2.13-.51-.03-.52.48-.06 24.66.06 49.26c.08 18.1 13.82 19.95 28.17 18.56a.69.68-2.7 0 1 .75.68l-.02 4.53q0 .47-.48.47l-78.75.01q-.52 0-.52-.52l.02-4.49a.58.57 1.4 0 1 .61-.57c17.87 1.05 26.67-2.92 26.67-22.42q0-56.68-.04-113.36c-.01-10.14 1.34-25.06-12.05-27.54q-6.33-1.18-14.69-.78a.55.54-.5 0 1 -.57-.55l.09-4.52q.01-.38.39-.4c30.72-1.26 59.56-3.85 86.86-1.9q9.54.68 22.48 4.59c19.58 5.92 34.75 19.77 36.39 41 1.86 23.91-14.08 42.8-36.44 49.23zm.6-12.29c9.58-11.96 11.04-29.18 8.22-44.11-6.14-32.56-40.84-35.66-67.32-33.09q-.44.04-.44.49v91.24a.62.62 0 0 0 .58.62c19.32 1.42 45.59 1.52 58.96-15.15z" fill="#f57f25"/><path d="m1173.48 198.26c-4.79-5.08-14.57-6.18-21.44-6.08q-.49.01-.49-.48l-.01-4.57q0-.57.58-.57l65.06.01q.62 0 .63.61l.06 4.23a.73.73 0 0 1 -.74.75c-18.82-.21-25.16 9.67-25.1 27.34q.11 33.88.26 67.75.05 12.81-1.22 19.92c-7.69 43.11-44.67 60.29-85.57 58.98-37.96-1.22-71.4-18.72-77.12-59.44q-.82-5.88-.81-19.97.04-38.87-.27-77.75c-.13-15.99-10.67-16.75-23.41-16.98q-.53-.01-.52-.54l.05-4.34q.01-.57.58-.57l71.18.01a.61.6-90 0 1 .6.61l-.02 4.1q0 .69-.69.69c-18.44-.1-24.24 4.94-24.2 23.53q.08 37 .16 74c.1 48.97 34.49 66.56 78.88 60.83 19.87-2.57 36.59-12.9 44.34-31.84q4.8-11.73 4.86-24 .17-36.36.11-72.74c-.02-7.4-.43-17.86-5.74-23.49z" fill="#f57f25"/><path d="m1445.69 197.28-.02 67.96a.6.59-89.5 0 0 .58.6q21.85.22 43.57.05 9.68-.07 11.28-.48c8.49-2.18 10.42-12.14 10.95-20.02q.04-.61.65-.6l4.43.01q.57 0 .57.58l-.01 52.39q0 .71-.71.7l-4.46-.03a.62.62 0 0 1 -.61-.6c-.31-7.53-2.37-17.46-9.71-20.54-2.93-1.23-7.65-1.06-11.39-1.08q-22.28-.09-44.56 0-.5 0-.5.5-.28 45.62.01 62.53.21 12.26 12.9 12.33 28.66.16 49.83-.27c17.8-.36 24.54-16.46 27.85-31.14q.12-.54.67-.53l4.25.02q.59.01.53.6l-4.39 40.94q-.06.54-.6.54h-148.42q-.61 0-.6-.61l.05-4.38q.01-.58.59-.57c7.84.2 18.97.61 25.5-2.73 7.13-3.65 8.2-11.27 8.21-18.45q.06-61.5.05-123c0-19.12-12.58-20.78-28.19-19.92a.54.53 89.1 0 1 -.57-.56l.09-4.5q.01-.46.47-.46l134.11.01a.56.55-1.6 0 1 .56.52l2.18 38q.04.72-.67.71l-4.15-.05q-.58-.01-.63-.59-.85-9.79-5.07-18.4c-3.42-6.98-7.9-9.92-15.55-9.94q-29.31-.07-58.6-.01-.47 0-.47.47z" fill="#f57f25"/><path d="m1668.51 365.88c-36.18-2.34-66.76-21.35-71.78-59.69q-.74-5.68-.73-19.97.06-60.03-.02-75.98c-.09-16.86-10.18-18.05-23.71-18.23q-.52 0-.52-.52l.01-4.34q0-.59.59-.59l71.31.01q.59 0 .59.59v4.32q0 .62-.62.59c-13.77-.55-23.96 2.47-24.02 18.43q-.15 35.25-.12 70.49.02 16.02.48 19.99c3.91 34.04 28.65 49.6 61.24 50.45 24.38.65 49.73-7.08 60.6-30.62 5.75-12.47 5.69-24.07 5.73-40.56q.08-31-.08-62c-.06-10.83-1.98-22.32-14.73-24.68q-7.01-1.3-12.17-1.51-.54-.02-.54-.56v-4.36q0-.58.59-.58l65.05.01q.58 0 .59.59l.01 4.32q0 .51-.51.53c-17.46.87-24.99 7.18-25.03 25.24q-.07 34.12-.01 68.23.02 13.46-.96 19.96c-7.13 46.95-48.5 63.21-91.24 60.44z" fill="#f57f25"/><path d="m927.17 212.02a.27.27 0 0 0 -.52-.1l-69.75 149.38q-.21.45-.71.45l-5.65-.01q-.43 0-.61-.38l-71.41-149.35a.31.31 0 0 0 -.59.12q-3.69 61.34-7.31 122.24-.5 8.41.71 11.65c3.07 8.18 12.96 9.91 20.92 10.12a.61.61 0 0 1 .6.61l.01 4.4a.6.6 0 0 1 -.6.6l-57.4-.01a.64.64 0 0 1 -.64-.64l.03-4.33q0-.57.57-.56c8.94.19 18.69-.64 21.38-10.72q1.86-6.99 2.31-14.23 3.84-61.99 7.39-124 .73-12.87-11.56-14.52-2.74-.36-5.32-.7-.49-.06-.49-.56l.01-4.1q0-.59.58-.59h41.61q.41 0 .59.37l67.29 140.78a.32.31 44.8 0 0 .57 0l67.01-140.78q.17-.37.58-.37h40.25q.74 0 .74.73l.01 3.98a.6.6 0 0 1 -.56.6c-6.84.46-18.65-.09-17.94 10.15q7.52 108.91 9.68 137.5.17 2.33 1.26 7.26c2.29 10.37 13.62 9.48 21.91 9.15a.61.6-.5 0 1 .63.61l-.01 4.48q0 .5-.49.5l-71.37-.01q-.61 0-.61-.61l-.01-4.34q0-.6.6-.59c9.56.16 22.01-2.38 24.18-13q.47-2.27-.27-13.9-3.74-58.73-7.6-117.28z" fill="#f57f25"/><path d="m1926.62 327.77 66.86-140.5q.23-.48.77-.48l40.25.01q.71 0 .71.7v4a.67.67 0 0 1 -.64.67c-7.3.34-18.64.11-17.97 9.83q4.56 65.88 9.24 131.75c.66 9.2.55 21.42 12.67 22.11q7.78.44 10.97.39.53-.01.53.52l-.02 4.48a.49.49 0 0 1 -.49.49l-71.31.01q-.56 0-.56-.56l.02-4.51q.01-.69.7-.65 11.12.65 18.61-4.28c5.28-3.47 5.97-9.62 5.56-16.13q-3.95-61.77-7.97-123.34a.35.35 0 0 0 -.66-.12l-69.62 149.1q-.23.49-.78.49l-5.48-.01q-.55 0-.79-.49l-71.4-149.33a.28.28 0 0 0 -.53.1q-3.63 60.35-7.26 120.85-.58 9.68.75 13.15c3.16 8.3 12.93 9.92 20.87 10.15q.6.01.6.62l-.01 4.34q0 .62-.62.62l-57.6-.01q-.48 0-.48-.47l.01-4.54q0-.53.53-.51c7.74.32 17.99-.38 21.23-9.66q1.86-5.3 2.42-14.47 5.78-93.32 7.48-122.84c.75-13.11-4.73-16.34-16.76-17.17q-.54-.03-.54-.58l.02-4.12q0-.58.59-.58l41.47-.01a.79.78-12.4 0 1 .71.45l67.18 140.53q.37.78.74 0z" fill="#f57f25"/><path d="m371.78 267.23c-13.37 16.67-39.64 16.57-58.96 15.15a.62.62 0 0 1 -.58-.62v-91.24q0-.45.44-.49c26.48-2.57 61.18.53 67.32 33.09 2.82 14.93 1.36 32.15-8.22 44.11z" fill="#fff"/><path d="m114.68 271.19 23.39-64.07a.33.33 0 0 1 .62 0l24.06 63.82a.33.33 0 0 1 -.31.45l-47.45.25a.33.33 0 0 1 -.31-.45z" fill="#fff"/></svg>