<svg width="80" height="80" viewBox="0 0 80 80" fill="none" xmlns="http://www.w3.org/2000/svg">
<path d="M0 26.6809C0 44.9093 14.1897 62.9242 36.2451 78.2924C37.4704 79.1462 38.9723 80 40 80C41.0277 80 42.5296 79.1462 43.7549 78.2924C65.8498 62.9242 80 44.9093 80 26.6809C80 10.9285 69.9209 0 56.996 0C49.4466 0 43.5573 3.71398 40 9.34899C36.5217 3.75667 30.5929 0 23.0435 0C10.0791 0 0 10.9285 0 26.6809ZM8.14229 26.6382C8.14229 15.8805 14.7036 8.58058 23.5178 8.58058C30.6324 8.58058 34.6245 13.2337 37.1146 17.2892C38.2213 19.0395 38.9723 19.5944 40 19.5944C41.0672 19.5944 41.7391 18.9968 42.8854 17.2892C45.5731 13.3191 49.4071 8.58058 56.4822 8.58058C65.336 8.58058 71.8972 15.8805 71.8972 26.6382C71.8972 41.6649 57.4308 58.3138 40.751 70.2668C40.3953 70.5229 40.1581 70.6937 40 70.6937C39.8419 70.6937 39.6047 70.5229 39.2885 70.2668C22.6087 58.3138 8.14229 41.6649 8.14229 26.6382Z" fill="#CDCCCC"/>
</svg>
