<svg width="80" height="80" viewBox="0 0 80 80" fill="none" xmlns="http://www.w3.org/2000/svg">
<path d="M0 37.7718C0 39.7151 1.30826 41.3967 3.40147 41.3967C4.41537 41.3967 5.33115 40.7614 6.14881 40.014L38.5936 8.88474C39.5094 7.98785 40.556 7.98785 41.4718 8.88474L73.8839 40.014C74.6688 40.7614 75.5846 41.3967 76.5985 41.3967C78.5282 41.3967 80 40.014 80 37.8465C80 36.576 79.5748 35.567 78.7244 34.7448L69.5339 25.9255V10.3795C69.5339 8.69789 68.5854 7.65152 67.1137 7.65152H62.6002C61.1611 7.65152 60.1799 8.69789 60.1799 10.3795V16.9193L44.677 2.04601C41.8316 -0.682004 38.2339 -0.682004 35.3884 2.04601L1.30826 34.7448C0.425184 35.567 0 36.6881 0 37.7718ZM10.6296 71.3675C10.6296 76.7488 13.5732 80 18.4464 80H61.5863C66.4268 80 69.4031 76.7488 69.4031 71.3675V42.9662L42.0278 16.7698C40.7522 15.4992 39.215 15.5366 37.9722 16.7698L10.6296 42.9662V71.3675ZM48.6018 72.9744H31.4309V49.0576C31.4309 47.3012 32.4448 46.1801 33.982 46.1801H46.0834C47.6206 46.1801 48.6018 47.3012 48.6018 49.0576V72.9744Z" fill="#CDCCCC"/>
</svg>
