<svg width="80" height="80" viewBox="0 0 80 80" fill="none" xmlns="http://www.w3.org/2000/svg">
<path d="M6.22931 80C9.02514 80 10.9871 79.0584 13.9792 76.7985L39.2888 57.5141C39.534 57.3258 39.7793 57.1751 40.0245 57.1751C40.2207 57.1751 40.466 57.3258 40.7112 57.5141L66.0208 76.7985C69.0129 79.0584 70.9749 80 73.7707 80C77.4985 80 80 77.8154 80 74.8023C80 73.2203 79.2152 71.3371 78.3323 69.4539L47.7253 5.57439C45.9595 1.9209 43.458 0 40.0245 0C36.591 0 34.0405 1.88324 32.2747 5.57439L1.66769 69.4539C0.784795 71.3371 0 73.2203 0 74.8023C0 77.8154 2.50153 80 6.22931 80ZM11.4286 68.9642C11.2814 68.8889 11.2814 68.7382 11.3795 68.5122L39.485 10.4331C39.6321 10.1318 39.7793 10.0188 40.0245 10.0188C40.2207 10.0188 40.3679 10.1318 40.515 10.4331L68.6205 68.5122C68.7186 68.7382 68.6695 68.8889 68.5714 68.9642C68.4243 69.0395 68.2281 69.0019 68.0809 68.8512L43.1147 49.4539C41.9865 48.5876 41.0055 48.2863 40.0245 48.2863C39.0435 48.2863 38.0135 48.5876 36.8853 49.4539L11.9681 68.8512C11.7719 69.0019 11.5757 69.0019 11.4286 68.9642Z" fill="#CDCCCC"/>
</svg>
