<svg width="80" height="80" viewBox="0 0 80 80" fill="none" xmlns="http://www.w3.org/2000/svg">
<path d="M39.9807 80C61.9043 80 80 61.8956 80 40C80 18.1044 61.8656 0 39.942 0C18.057 0 0 18.1044 0 40C0 61.8956 18.0957 80 39.9807 80ZM39.942 46.3056C32.3635 46.2669 26.4862 39.9226 26.4862 31.528C26.4089 23.6364 32.4021 17.06 39.942 17.06C47.4819 17.06 53.3978 23.6364 53.3978 31.528C53.3978 39.9226 47.5205 46.383 39.942 46.3056ZM39.942 73.3849C31.2808 73.3849 22.0783 69.7872 16.2397 63.5203C20.6863 56.8665 29.5022 52.9981 39.942 52.9981C50.2658 52.9981 59.159 56.7892 63.6443 63.5203C57.8057 69.7872 48.6032 73.3849 39.942 73.3849Z" fill="#CDCCCC"/>
</svg>
