<svg width="80" height="80" viewBox="0 0 80 80" fill="none" xmlns="http://www.w3.org/2000/svg">
<path d="M33.0152 65.413C39.6854 65.413 45.936 63.4182 51.1379 60.0104L69.5123 78.2545C70.7289 79.4182 72.2811 80 73.9591 80C77.441 80 80 77.2987 80 73.8909C80 72.3117 79.4546 70.774 78.28 69.6104L60.0315 51.4493C63.807 46.1299 66.0304 39.6883 66.0304 32.7065C66.0304 14.7117 51.1799 0 33.0152 0C14.8925 0 0 14.7117 0 32.7065C0 50.7013 14.8506 65.413 33.0152 65.413ZM33.0152 56.6857C19.7168 56.6857 8.80965 45.8805 8.80965 32.7065C8.80965 19.5325 19.7168 8.72727 33.0152 8.72727C46.3136 8.72727 57.2208 19.5325 57.2208 32.7065C57.2208 45.8805 46.3136 56.6857 33.0152 56.6857Z" fill="#CDCCCC"/>
</svg>
